D:\school\WTK\thesis\model\3dpredictsim\Results\Batchsim_tmt_linear\Pog_s1_tmt_bCst_d05_k800_ig24_act_GRF.mot
nRows=30
nColumns=19

name D:\school\WTK\thesis\model\3dpredictsim\Results\Batchsim_tmt_linear\Pog_s1_tmt_bCst_d05_k800_ig24_act_GRF.mot
datacolumns 19
datarows 30
range 0.6153062119 0.9721838148
endheader
time 	ground_force_vx	ground_force_vy	ground_force_vz	ground_force_px	ground_force_py	ground_force_pz	1_ground_force_vx	1_ground_force_vy	1_ground_force_vz	1_ground_force_px	1_ground_force_py	1_ground_force_pz	ground_torque_x	ground_torque_y	ground_torque_z	1_ground_torque_x	1_ground_torque_y	1_ground_torque_z
        0.6153062119	      106.0830452460	      426.9387695383	        0.2801468392	        0.4116644492	        0.0000000000	        0.0329067848	      -44.5411064149	       34.9610349854	      -11.4619801221	        0.9604077942	        0.0000000000	       -0.0516841541	        0.0000000000	        0.0000000000	        0.0000000000	        0.0000000000	        0.0000000000	        0.0000000000	
        0.6276123362	       71.3824122443	      324.0347645026	        6.6411584806	        0.4195809179	        0.0000000000	        0.0296822676	     -117.2385125158	      121.1844142513	      -44.6223934116	        0.9684898249	        0.0000000000	       -0.0497282199	        0.0000000000	        0.0000000000	        0.0000000000	        0.0000000000	        0.0000000000	        0.0000000000	
        0.6399184604	       39.3299235322	      218.6251698878	       12.8078087747	        0.4329337358	        0.0000000000	        0.0236995412	      -57.8781242814	      307.2230485439	      -16.0363756478	        0.9739981668	        0.0000000000	       -0.0477809016	        0.0000000000	        0.0000000000	        0.0000000000	        0.0000000000	        0.0000000000	        0.0000000000	
        0.6522245846	       24.1633593478	      171.2059220763	       13.4845390557	        0.4384578908	        0.0000000000	        0.0208165916	      -56.9193891414	      517.0501346932	        5.3571243585	        0.9771676861	        0.0000000000	       -0.0476318512	        0.0000000000	        0.0000000000	        0.0000000000	        0.0000000000	        0.0000000000	        0.0000000000	
        0.6645307089	       18.6647935428	      126.0427246876	       16.2812407279	        0.4388145655	        0.0000000000	        0.0211278495	     -103.7783342397	      737.9387415294	       14.7459701426	        0.9860113397	        0.0000000000	       -0.0496033559	        0.0000000000	        0.0000000000	        0.0000000000	        0.0000000000	        0.0000000000	        0.0000000000	
        0.6768368331	        6.2442788971	       71.2838036011	       15.5148859982	        0.4387881359	        0.0000000000	        0.0214944035	     -137.9732406872	      883.9821217917	       20.7185844880	        0.9940574804	        0.0000000000	       -0.0514284696	        0.0000000000	        0.0000000000	        0.0000000000	        0.0000000000	        0.0000000000	        0.0000000000	
        0.6891429574	       -7.2362426697	       13.1047943755	        3.6204948249	        0.4353630385	        0.0000000000	        0.0211986317	     -144.7190628432	      914.6879683547	       21.8157758114	        0.9992583251	        0.0000000000	       -0.0524661377	        0.0000000000	        0.0000000000	        0.0000000000	        0.0000000000	        0.0000000000	        0.0000000000	
        0.7014490816	        0.0222957590	       -0.0187266251	        0.0007290050	        0.0000000000	        0.0000000000	        0.0000000000	     -131.7689923209	      881.5984090848	       21.4471804364	        1.0031361636	        0.0000000000	       -0.0530632548	        0.0000000000	        0.0000000000	        0.0000000000	        0.0000000000	        0.0000000000	        0.0000000000	
        0.7137552058	        0.2973706559	       -0.2130475532	        0.0192407320	        0.0000000000	        0.0000000000	        0.0000000000	     -114.9051138315	      823.2980585685	       20.2197934506	        1.0068523884	        0.0000000000	       -0.0533591487	        0.0000000000	        0.0000000000	        0.0000000000	        0.0000000000	        0.0000000000	        0.0000000000	
        0.7260613301	       -1.8177490920	        1.1455511105	       -0.1422687891	        0.0000000000	        0.0000000000	        0.0000000000	     -101.8009470793	      773.0712586074	       18.6715523280	        1.0107501209	        0.0000000000	       -0.0533893312	        0.0000000000	        0.0000000000	        0.0000000000	        0.0000000000	        0.0000000000	        0.0000000000	
        0.7383674543	       -1.5852796171	        0.9109932465	       -0.1281846464	        0.0000000000	        0.0000000000	        0.0000000000	      -90.4722484745	      737.6086642734	       18.0287907312	        1.0151756545	        0.0000000000	       -0.0532261892	        0.0000000000	        0.0000000000	        0.0000000000	        0.0000000000	        0.0000000000	        0.0000000000	
        0.7506735786	       -1.2400959593	        0.6648110239	       -0.1025135463	        0.0000000000	        0.0000000000	        0.0000000000	      -80.8729100738	      711.7044923405	       18.5260456675	        1.0203632016	        0.0000000000	       -0.0528182237	        0.0000000000	        0.0000000000	        0.0000000000	        0.0000000000	        0.0000000000	        0.0000000000	
        0.7629797028	       -0.8089464458	        0.4136652313	       -0.0647805559	        0.0000000000	        0.0000000000	        0.0000000000	      -71.2376874214	      686.9992934013	       19.3784038961	        1.0255158349	        0.0000000000	       -0.0523948295	        0.0000000000	        0.0000000000	        0.0000000000	        0.0000000000	        0.0000000000	        0.0000000000	
        0.7752858270	       -0.5370108274	        0.2638330645	       -0.0423572993	        0.0000000000	        0.0000000000	        0.0000000000	      -61.7989168797	      662.3509747724	       20.1894755394	        1.0303278309	        0.0000000000	       -0.0520758700	        0.0000000000	        0.0000000000	        0.0000000000	        0.0000000000	        0.0000000000	        0.0000000000	
        0.7875919513	       -0.4012715224	        0.1906618892	       -0.0315088156	        0.0000000000	        0.0000000000	        0.0000000000	      -53.0052404119	      641.0858452605	       20.5417768911	        1.0350190751	        0.0000000000	       -0.0518428116	        0.0000000000	        0.0000000000	        0.0000000000	        0.0000000000	        0.0000000000	        0.0000000000	
        0.7998980755	       -0.3422677032	        0.1581288187	       -0.0268449202	        0.0000000000	        0.0000000000	        0.0000000000	      -45.3916532368	      623.3039948765	       21.1569332079	        1.0397544554	        0.0000000000	       -0.0516386764	        0.0000000000	        0.0000000000	        0.0000000000	        0.0000000000	        0.0000000000	        0.0000000000	
        0.8122041997	       -0.3296634578	        0.1486953209	       -0.0256369408	        0.0000000000	        0.0000000000	        0.0000000000	      -38.5494982169	      608.6491943314	       21.0946791912	        1.0444949270	        0.0000000000	       -0.0514573744	        0.0000000000	        0.0000000000	        0.0000000000	        0.0000000000	        0.0000000000	        0.0000000000	
        0.8245103240	       -0.3535493921	        0.1560703601	       -0.0272385607	        0.0000000000	        0.0000000000	        0.0000000000	      -32.0440623540	      597.9181166711	       21.0525872241	        1.0496757147	        0.0000000000	       -0.0512194228	        0.0000000000	        0.0000000000	        0.0000000000	        0.0000000000	        0.0000000000	        0.0000000000	
        0.8368164482	       -0.4188918133	        0.1811429203	       -0.0318529151	        0.0000000000	        0.0000000000	        0.0000000000	      -27.0971038823	      590.9546692367	       20.7342106046	        1.0554846009	        0.0000000000	       -0.0508759021	        0.0000000000	        0.0000000000	        0.0000000000	        0.0000000000	        0.0000000000	        0.0000000000	
        0.8491225725	       -0.5339614875	        0.2264887213	       -0.0397130378	        0.0000000000	        0.0000000000	        0.0000000000	      -23.4884736707	      587.0572978513	       20.1512271983	        1.0616868456	        0.0000000000	       -0.0504295466	        0.0000000000	        0.0000000000	        0.0000000000	        0.0000000000	        0.0000000000	        0.0000000000	
        0.8614286967	       -0.7059664144	        0.2942028945	       -0.0508213235	        0.0000000000	        0.0000000000	        0.0000000000	      -20.1588556176	      585.3789539976	       19.4762831206	        1.0681701446	        0.0000000000	       -0.0498899437	        0.0000000000	        0.0000000000	        0.0000000000	        0.0000000000	        0.0000000000	        0.0000000000	
        0.8737348209	       -0.9321121485	        0.3823632527	       -0.0643849791	        0.0000000000	        0.0000000000	        0.0000000000	      -17.3305680385	      584.7099050399	       18.9018135225	        1.0747815200	        0.0000000000	       -0.0492782071	        0.0000000000	        0.0000000000	        0.0000000000	        0.0000000000	        0.0000000000	        0.0000000000	
        0.8860409452	       -1.1936273780	        0.4829907715	       -0.0790127829	        0.0000000000	        0.0000000000	        0.0000000000	      -14.6905244646	      583.5976194244	       18.8190978256	        1.0813066092	        0.0000000000	       -0.0486354637	        0.0000000000	        0.0000000000	        0.0000000000	        0.0000000000	        0.0000000000	        0.0000000000	
        0.8983470694	       -1.4509567667	        0.5803896148	       -0.0919764424	        0.0000000000	        0.0000000000	        0.0000000000	      -12.0357765208	      581.3853155564	       18.8644138908	        1.0877202862	        0.0000000000	       -0.0479794276	        0.0000000000	        0.0000000000	        0.0000000000	        0.0000000000	        0.0000000000	        0.0000000000	
        0.9106531937	       -1.6580319323	        0.6569922051	       -0.1007784149	        0.0000000000	        0.0000000000	        0.0000000000	       -9.2910685242	      578.1090713795	       18.8903626170	        1.0940103819	        0.0000000000	       -0.0473178329	        0.0000000000	        0.0000000000	        0.0000000000	        0.0000000000	        0.0000000000	        0.0000000000	
        0.9229593179	       -1.7861888930	        0.7023487156	       -0.1035262720	        0.0000000000	        0.0000000000	        0.0000000000	       -6.3074863783	      573.9849814942	       18.5664487621	        1.1001657423	        0.0000000000	       -0.0466566362	        0.0000000000	        0.0000000000	        0.0000000000	        0.0000000000	        0.0000000000	        0.0000000000	
        0.9352654421	       -1.8380472014	        0.7179696468	       -0.0996741565	        0.0000000000	        0.0000000000	        0.0000000000	       -3.1233911460	      569.1180669925	       17.4795754931	        1.1061997196	        0.0000000000	       -0.0459952013	        0.0000000000	        0.0000000000	        0.0000000000	        0.0000000000	        0.0000000000	        0.0000000000	
        0.9475715664	       -1.8320504597	        0.7113480461	       -0.0898702562	        0.0000000000	        0.0000000000	        0.0000000000	       -0.0226212552	      565.4473849610	       15.8211434838	        1.1122800269	        0.0000000000	       -0.0452953053	        0.0000000000	        0.0000000000	        0.0000000000	        0.0000000000	        0.0000000000	        0.0000000000	
        0.9598776906	       -1.7585154828	        0.6792358818	       -0.0739561632	        0.0000000000	        0.0000000000	        0.0000000000	        2.9730271644	      564.1470722838	       14.0586370986	        1.1183341974	        0.0000000000	       -0.0445569722	        0.0000000000	        0.0000000000	        0.0000000000	        0.0000000000	        0.0000000000	        0.0000000000	
        0.9721838148	       -1.5859690737	        0.6098706687	       -0.0533685039	        0.0000000000	        0.0000000000	        0.0000000000	        5.9456573521	      565.8794376279	       12.7918234413	        1.1242345384	        0.0000000000	       -0.0437931662	        0.0000000000	        0.0000000000	        0.0000000000	        0.0000000000	        0.0000000000	        0.0000000000	
